# xmcd CD database file
#
# Track frame offsets:
#	150
#	39291
#	78940
#	108341
#	148734
#	191683
#	223374
#
# Disc length: 3425 seconds
#
# Revision: 0
# Processed by: cddbd v1.5.2PL0 Copyright (c) Steve Scherf et al.
# Submitted via: CDex 1.70beta2
#
DISCID=610d5f07
DTITLE=Jason Robinson and Anthony Davis - Cerulean landscape
DYEAR=2008
DGENRE=Jazz
TTITLE0=Shimmer
TTITLE1=Someday I'll know
TTITLE2=Vicissitudes (for Mel)
TTITLE3=Translucence
TTITLE4=Of blues and dreams
TTITLE5=Andrew
TTITLE6=Cerulean seas and viridian skies
EXTD=YEAR: 2008
EXTT0=
EXTT1=
EXTT2=
EXTT3=
EXTT4=
EXTT5=
EXTT6=
PLAYORDER=
